<svg xmlns="http://www.w3.org/2000/svg" width="512" viewBox="0 -36 512 512" height="512"><path d="M439.887 361.65H20.605C9.227 361.65 0 352.424 0 341.045V44.354h439.887zm0 0" fill="#d8d8d8"/><path d="M408.98 44.354h30.926V361.65H408.98zm0 0" fill="#afafaf"/><path d="M439.887 20.662v33.996H0V20.662C0 9.283 9.227.057 20.605.057h398.68c11.38 0 20.602 9.226 20.602 20.605zm0 0" fill="#aac9e2"/><path d="M36.055 330.744a5.149 5.149 0 01-5.149-5.152V90.712a5.151 5.151 0 015.149-5.151h367.777a5.151 5.151 0 015.148 5.152v240.031zm0 0" fill="#fafeff"/><path d="M343.566 146.342a7.726 7.726 0 00-7.726 7.726v54.602h-43.785a2.58 2.58 0 01-2.575-2.578v-52.024a7.726 7.726 0 10-15.453 0v52.024c0 9.941 8.09 18.031 18.032 18.031h43.78v43.98c0 4.27 3.462 7.727 7.727 7.727a7.726 7.726 0 007.727-7.726V154.068a7.729 7.729 0 00-7.727-7.726zm0 0" fill="#ea9292"/><path d="M512 336.412c0 57.18-46.352 103.531-103.531 103.531-57.18 0-103.535-46.351-103.535-103.53 0-57.18 46.355-103.536 103.535-103.536S512 279.232 512 336.412zm0 0" fill="#f2d67c"/><path d="M363.652 307.748a7.722 7.722 0 00-7.722 7.723v23.695a7.723 7.723 0 007.722 7.727 7.724 7.724 0 007.727-7.727v-23.695a7.723 7.723 0 00-7.727-7.723zm0 0M453.281 307.748a7.723 7.723 0 00-7.726 7.723v23.695a7.724 7.724 0 007.726 7.727 7.726 7.726 0 007.727-7.727v-23.695a7.725 7.725 0 00-7.727-7.723zm0 0M408.469 349.986c-12.078 0-23.293 5.446-30.774 14.946a7.723 7.723 0 001.29 10.847 7.728 7.728 0 0010.85-1.289c4.532-5.754 11.321-9.05 18.634-9.05 7.308 0 14.101 3.296 18.629 9.05a7.711 7.711 0 006.078 2.95 7.728 7.728 0 006.063-12.508c-7.477-9.5-18.692-14.946-30.77-14.946zm0 0" fill="#a8704a"/><path d="M512 336.412c0 57.172-46.36 103.531-103.531 103.531-5.254 0-10.418-.39-15.453-1.152 49.847-7.46 88.078-50.46 88.078-102.379 0-51.922-38.23-94.922-88.078-102.379 5.035-.762 10.199-1.156 15.453-1.156 57.172 0 103.531 46.36 103.531 103.535zm0 0" fill="#e2b061"/><path d="M37.602 18.084c-5.114 0-9.274 4.16-9.274 9.273 0 5.114 4.16 9.274 9.274 9.274 5.113 0 9.273-4.16 9.273-9.274 0-5.113-4.16-9.273-9.273-9.273zm0 0M76.746 18.084c-5.11 0-9.27 4.16-9.27 9.273 0 5.114 4.16 9.274 9.27 9.274 5.113 0 9.274-4.16 9.274-9.274 0-5.113-4.16-9.273-9.274-9.273zm0 0M115.895 36.627c5.113 0 9.273-4.156 9.273-9.27 0-5.113-4.16-9.273-9.273-9.273-5.114 0-9.274 4.16-9.274 9.273 0 5.114 4.16 9.27 9.274 9.27zm0 0" fill="#fff"/><g fill="#ea9292"><path d="M158.133 146.342a7.726 7.726 0 00-7.727 7.726v54.602h-43.781a2.577 2.577 0 01-2.574-2.578v-52.024a7.726 7.726 0 10-15.453 0v52.024c0 9.941 8.086 18.031 18.027 18.031h43.781v39.145c0 4.27 3.461 7.726 7.727 7.726a7.724 7.724 0 007.726-7.726v-109.2a7.729 7.729 0 00-7.726-7.726zm0 0M240.547 146.857H199.34c-9.942 0-18.027 8.09-18.027 18.028v87.566c0 9.942 8.085 18.028 18.027 18.028h41.207c9.941 0 18.027-8.086 18.027-18.028v-87.566c0-9.938-8.086-18.028-18.027-18.028zm2.574 105.594a2.574 2.574 0 01-2.574 2.574H199.34a2.574 2.574 0 01-2.574-2.574v-87.566a2.579 2.579 0 012.574-2.574h41.207a2.576 2.576 0 012.574 2.574zm0 0"/><path d="M219.945 185.49a7.724 7.724 0 00-7.726 7.727v30.902a7.724 7.724 0 007.726 7.727 7.726 7.726 0 007.727-7.727v-30.902c0-4.27-3.461-7.727-7.727-7.727zm0 0"/></g><path d="M439.906 20.662v33.996h-30.902V20.662c0-11.383-9.223-20.605-20.606-20.605h30.907c11.382 0 20.601 9.218 20.601 20.605zm0 0" fill="#699eb5"/></svg>