<?xml version="1.0" encoding="UTF-8" standalone="no"?>
<svg
   xmlns:dc="http://purl.org/dc/elements/1.1/"
   xmlns:cc="http://creativecommons.org/ns#"
   xmlns:rdf="http://www.w3.org/1999/02/22-rdf-syntax-ns#"
   xmlns:svg="http://www.w3.org/2000/svg"
   xmlns="http://www.w3.org/2000/svg"
   id="svg6214"
   version="1.1"
   width="512"
   viewBox="0 -36 512.00002 511.99999"
   height="512">
  <metadata
     id="metadata6220">
    <rdf:RDF>
      <cc:Work
         rdf:about="">
        <dc:format>image/svg+xml</dc:format>
        <dc:type
           rdf:resource="http://purl.org/dc/dcmitype/StillImage" />
        <dc:title></dc:title>
      </cc:Work>
    </rdf:RDF>
  </metadata>
  <defs
     id="defs6218" />
  <g
     transform="translate(0,0.05664)"
     id="g6240">
    <path
       d="M 439.88672,361.59375 H 20.605469 C 9.226562,361.59375 0,352.36719 0,340.98828 V 44.296875 h 439.88672 z m 0,0"
       fill="#d8d8d8"
       id="path6178" />
    <path
       d="m 408.98047,44.296875 h 30.92578 V 361.59375 h -30.92578 z m 0,0"
       fill="#afafaf"
       id="path6180" />
    <path
       d="M 439.88672,20.605469 V 54.601562 H 0 V 20.605469 C 0,9.226562 9.226562,0 20.605469,0 H 419.28516 c 11.3789,0 20.60156,9.226562 20.60156,20.605469 z m 0,0"
       fill="#aac9e2"
       id="path6182" />
    <path
       d="m 36.054688,330.6875 c -2.84375,0 -5.148438,-2.30469 -5.148438,-5.15234 V 90.65625 c 0,-2.84375 2.304688,-5.152344 5.148438,-5.152344 H 403.83203 c 2.84375,0 5.14844,2.308594 5.14844,5.152344 V 330.6875 Z m 0,0"
       fill="#fafeff"
       id="path6184" />
    <path
       d="m 343.56641,146.28516 c -4.26954,0 -7.72657,3.46093 -7.72657,7.72656 v 54.60156 h -43.78515 c -1.41797,0 -2.57422,-1.15625 -2.57422,-2.57812 v -52.02344 c 0,-4.26563 -3.45703,-7.72656 -7.72656,-7.72656 -4.26563,0 -7.72657,3.46093 -7.72657,7.72656 v 52.02344 c 0,9.9414 8.08985,18.03125 18.03125,18.03125 h 43.78125 v 43.98046 c 0,4.26954 3.46094,7.72657 7.72657,7.72657 4.26562,0 7.72656,-3.45703 7.72656,-7.72657 V 154.01172 c 0,-4.26563 -3.46094,-7.72656 -7.72656,-7.72656 z m 0,0"
       fill="#ea9292"
       id="path6186" />
    <path
       d="m 512,336.35547 c 0,57.17969 -46.35156,103.53125 -103.53125,103.53125 -57.17969,0 -103.53516,-46.35156 -103.53516,-103.53125 0,-57.17969 46.35547,-103.53516 103.53516,-103.53516 57.17969,0 103.53125,46.35547 103.53125,103.53516 z m 0,0"
       fill="#f2d67c"
       id="path6188" />
    <path
       d="m 363.65234,307.69141 c -4.26562,0 -7.72265,3.45703 -7.72265,7.72265 v 23.69531 c 0,4.26954 3.45703,7.72657 7.72265,7.72657 4.26953,0 7.72657,-3.45703 7.72657,-7.72657 v -23.69531 c 0,-4.26562 -3.45703,-7.72265 -7.72657,-7.72265 z m 0,0"
       fill="#a8704a"
       id="path6190" />
    <path
       d="m 453.28125,307.69141 c -4.26953,0 -7.72656,3.45703 -7.72656,7.72265 v 23.69531 c 0,4.26954 3.45703,7.72657 7.72656,7.72657 4.26562,0 7.72656,-3.45703 7.72656,-7.72657 v -23.69531 c 0,-4.26562 -3.46094,-7.72265 -7.72656,-7.72265 z m 0,0"
       fill="#a8704a"
       id="path6192" />
    <path
       d="m 408.46875,349.92969 c -12.07813,0 -23.29297,5.44531 -30.77344,14.94531 -2.64062,3.35156 -2.0625,8.21094 1.28906,10.84766 3.35547,2.64062 8.21094,2.0625 10.85157,-1.28907 4.53125,-5.7539 11.32031,-9.05078 18.63281,-9.05078 7.30859,0 14.10156,3.29688 18.62891,9.05078 1.52343,1.9375 3.78906,2.94922 6.07812,2.94922 1.67188,0 3.35547,-0.54297 4.77344,-1.65625 3.35156,-2.64062 3.92969,-7.5 1.28906,-10.85156 -7.47656,-9.5 -18.69141,-14.94531 -30.76953,-14.94531 z m 0,0"
       fill="#a8704a"
       id="path6194" />
    <path
       d="m 512,336.35547 c 0,57.17187 -46.35938,103.53125 -103.53125,103.53125 -5.25391,0 -10.41797,-0.39063 -15.45313,-1.15235 49.84766,-7.46093 88.07813,-50.46093 88.07813,-102.3789 0,-51.92188 -38.23047,-94.92188 -88.07813,-102.37891 5.03516,-0.76172 10.19922,-1.15625 15.45313,-1.15625 57.17187,0 103.53125,46.35938 103.53125,103.53516 z m 0,0"
       fill="#e2b061"
       id="path6196" />
    <path
       d="m 37.601562,18.027344 c -5.113281,0 -9.273437,4.160156 -9.273437,9.273437 0,5.113281 4.160156,9.273438 9.273437,9.273438 5.113282,0 9.273438,-4.160157 9.273438,-9.273438 0,-5.113281 -4.160156,-9.273437 -9.273438,-9.273437 z m 0,0"
       fill="#ffffff"
       id="path6198" />
    <path
       d="m 76.746094,18.027344 c -5.109375,0 -9.269532,4.160156 -9.269532,9.273437 0,5.113281 4.160157,9.273438 9.269532,9.273438 5.113281,0 9.273437,-4.160157 9.273437,-9.273438 0,-5.113281 -4.160156,-9.273437 -9.273437,-9.273437 z m 0,0"
       fill="#ffffff"
       id="path6200" />
    <path
       d="m 115.89453,36.570312 c 5.11328,0 9.27344,-4.15625 9.27344,-9.269531 0,-5.113281 -4.16016,-9.273437 -9.27344,-9.273437 -5.11328,0 -9.27344,4.160156 -9.27344,9.273437 0,5.113281 4.16016,9.269531 9.27344,9.269531 z m 0,0"
       fill="#ffffff"
       id="path6202" />
    <g
       fill="#ea9292"
       id="g6210">
      <path
         d="m 158.13281,146.28516 c -4.26953,0 -7.72656,3.46093 -7.72656,7.72656 v 54.60156 H 106.625 c -1.42187,0 -2.57422,-1.15625 -2.57422,-2.57812 v -52.02344 c 0,-4.26563 -3.46094,-7.72656 -7.726561,-7.72656 -4.269531,0 -7.726563,3.46093 -7.726563,7.72656 v 52.02344 c 0,9.9414 8.085938,18.03125 18.027344,18.03125 h 43.78125 v 39.14453 c 0,4.26953 3.46094,7.72656 7.72656,7.72656 4.26953,0 7.72656,-3.45703 7.72656,-7.72656 V 154.01172 c 0,-4.26563 -3.46093,-7.72656 -7.72656,-7.72656 z m 0,0"
         id="path6204" />
      <path
         d="m 240.54687,146.80078 h -41.20703 c -9.9414,0 -18.02734,8.08984 -18.02734,18.02734 v 87.56641 c 0,9.94141 8.08594,18.02734 18.02734,18.02734 h 41.20703 c 9.94141,0 18.02735,-8.08593 18.02735,-18.02734 v -87.56641 c 0,-9.9375 -8.08594,-18.02734 -18.02735,-18.02734 z m 2.57422,105.59375 c 0,1.42188 -1.15234,2.57422 -2.57422,2.57422 h -41.20703 c -1.42187,0 -2.57422,-1.15234 -2.57422,-2.57422 v -87.56641 c 0,-1.41796 1.15625,-2.57421 2.57422,-2.57421 h 41.20703 c 1.42188,0 2.57422,1.15625 2.57422,2.57421 z m 0,0"
         id="path6206" />
      <path
         d="m 219.94531,185.43359 c -4.26953,0 -7.72656,3.45703 -7.72656,7.72657 v 30.90234 c 0,4.26953 3.45703,7.72656 7.72656,7.72656 4.26563,0 7.72656,-3.45703 7.72656,-7.72656 v -30.90234 c 0,-4.26954 -3.46093,-7.72657 -7.72656,-7.72657 z m 0,0"
         id="path6208" />
    </g>
    <path
       d="M 439.90625,20.605469 V 54.601562 H 409.00391 V 20.605469 C 409.00391,9.222656 399.78125,0 388.39844,0 h 30.90625 c 11.38281,0 20.60156,9.21875 20.60156,20.605469 z m 0,0"
       fill="#699eb5"
       id="path6212" />
  </g>
</svg>
